<svg xmlns="http://www.w3.org/2000/svg" viewBox="0 0 100 100">
  <defs>
    <linearGradient id="grad1" x1="0%" y1="0%" x2="100%" y2="0%">
      <stop offset="0%" style="stop-color:#0ea5e9;stop-opacity:1" />
      <stop offset="100%" style="stop-color:#0369a1;stop-opacity:1" />
    </linearGradient>
  </defs>
  <g>
    <path d="M30 60 L50 40 L70 60" stroke="url(#grad1)" stroke-width="6" fill="none" />
    <path d="M40 60 C 40 50, 30 50, 30 40 C 30 30, 40 30, 40 40 C 40 30, 50 30, 50 40 C 50 30, 60 30, 60 40 C 60 50, 50 50, 50 60" stroke="url(#grad1)" stroke-width="6" fill="none" />
    <path d="M30 40 C 20 50, 10 40, 15 30 C 20 20, 30 30, 30 30 C 35 25, 25 15, 25 15" stroke="url(#grad1)" stroke-width="6" fill="none" />
    <circle cx="40" cy="30" r="2" fill="white" />
    <circle cx="60" cy="40" r="2" fill="white" />
  </g>
</svg>